<svg version="1.1" id="Layer_1" xmlns="http://www.w3.org/2000/svg" xmlns:xlink="http://www.w3.org/1999/xlink" x="0px" y="0px"
	 width="100%" viewBox="0 0 1307 728" enable-background="new 0 0 1307 728" xml:space="preserve">
<path fill="#FFFFFF" opacity="1.000000" stroke="none" 
	d="
M0.999999,424.000000 
	C1.000000,283.078217 1.000000,142.156433 1.000000,1.000000 
	C120.688576,1.000000 240.377304,1.000000 360.533020,1.468657 
	C361.000000,93.851173 361.000000,185.765030 361.000000,277.670319 
	C387.309509,277.670319 413.031738,277.670319 439.239807,277.670319 
	C439.239807,242.286270 439.239807,207.229645 439.239807,171.863846 
	C458.000641,171.863846 476.274750,171.863846 494.736328,171.863846 
	C494.736328,149.491760 494.736328,127.436058 494.736328,104.888275 
	C476.083984,104.888275 457.688660,104.888275 439.000000,104.888275 
	C439.000000,69.931023 439.000000,35.465511 439.000000,1.000000 
	C575.688660,1.000000 712.377380,1.000000 849.533020,1.468657 
	C850.000000,93.847054 850.000000,185.756790 850.000000,277.677979 
	C875.962769,277.677979 901.350525,277.677979 927.000000,277.677979 
	C927.000000,185.237473 927.000000,93.118736 927.000000,1.000000 
	C1053.892456,1.000000 1180.784912,1.000000 1308.000000,1.000000 
	C1308.000000,44.688152 1308.000000,88.377098 1307.637939,132.532974 
	C1306.552368,132.983032 1305.828857,132.966171 1304.864746,132.582794 
	C1303.466187,132.144211 1302.307983,132.009155 1301.149902,132.009018 
	C1220.594360,131.999161 1140.038940,131.999405 1059.483398,132.007050 
	C1058.322144,132.007156 1057.160767,132.111130 1055.625854,132.095444 
	C1054.495972,132.071716 1053.739624,132.119171 1052.727539,132.135696 
	C1052.369873,132.396622 1052.268188,132.688492 1052.094727,133.445358 
	C1052.015381,156.210556 1052.173950,178.512985 1051.876709,200.809326 
	C1051.807373,206.022293 1053.474854,207.114273 1058.398315,207.105301 
	C1139.610718,206.957184 1220.823608,207.000977 1302.036377,206.993042 
	C1303.696777,206.992874 1305.357300,206.888901 1307.258179,206.904907 
	C1307.665894,206.984299 1307.833008,206.992142 1308.000000,207.000000 
	C1308.000000,225.022018 1308.000000,243.044022 1307.531372,261.533020 
	C1222.152832,262.000000 1137.242920,262.000000 1052.321777,262.000000 
	C1052.321777,287.296234 1052.321777,312.017090 1052.321777,337.000000 
	C1137.762329,337.000000 1222.881104,337.000000 1308.000000,337.000000 
	C1308.000000,354.688690 1308.000000,372.377350 1307.531372,390.533020 
	C1222.152832,391.000000 1137.242920,391.000000 1052.321777,391.000000 
	C1052.321777,416.296234 1052.321777,441.017090 1052.321777,466.000000 
	C1137.762329,466.000000 1222.881104,466.000000 1308.000000,466.000000 
	C1308.000000,553.633667 1308.000000,641.267334 1308.000000,729.000000 
	C1011.644653,729.000000 715.289307,729.000000 418.628113,728.632446 
	C421.377716,727.770691 424.478058,727.465515 427.481689,726.752747 
	C453.465668,720.586426 475.838196,708.280396 494.163818,688.532043 
	C502.496948,679.552002 509.513855,669.784485 514.925415,658.947693 
	C526.579163,635.610657 530.142822,610.914734 527.147339,584.980164 
	C525.515686,570.853271 521.470581,557.596985 515.375610,544.979248 
	C506.786621,527.198242 494.236694,512.470764 478.742523,500.242737 
	C459.285889,484.887543 436.951874,476.300110 412.505920,474.234314 
	C396.645996,472.894073 380.786987,474.108368 365.130493,478.756989 
	C336.884674,487.143433 314.176056,503.032410 296.980560,526.654419 
	C280.322021,549.538879 272.346771,575.379211 273.031982,603.759949 
	C273.135010,608.027161 273.672607,612.283569 273.996613,616.545898 
	C274.980957,629.496765 278.653717,641.712158 283.877258,653.546204 
	C292.258972,672.534973 304.582214,688.453430 320.834686,701.314209 
	C336.234070,713.499939 353.296143,722.231750 372.705597,726.107910 
	C374.908386,726.547913 376.906799,728.011169 379.000000,729.000000 
	C253.080704,729.000000 127.161407,729.000000 1.000000,729.000000 
	C1.000000,629.311462 1.000000,529.622681 1.361705,429.472595 
	C13.804105,438.162811 25.910467,447.280792 37.956577,456.477722 
	C46.078117,462.678345 54.114624,468.990295 62.193649,475.255890 
	C88.572472,441.795502 114.623840,408.750488 141.206772,375.031189 
	C167.892517,408.773956 194.087234,441.895844 220.468536,475.253662 
	C240.631226,459.023163 260.340363,443.157745 280.210052,427.163086 
	C278.865784,425.303955 277.716797,423.530396 276.386719,421.905060 
	C267.049194,410.495056 257.594513,399.180023 248.332535,387.709259 
	C237.961243,374.864594 227.829178,361.826691 217.453690,348.985413 
	C206.852066,335.864258 196.027664,322.923065 185.430450,309.798340 
	C183.322815,307.188049 180.574310,304.233582 180.255371,301.212555 
	C179.495270,294.012695 180.010345,286.678192 180.010345,278.920044 
	C207.219070,278.920044 233.942764,278.920044 260.680573,278.920044 
	C260.680573,256.375885 260.680573,234.321228 260.680573,211.781403 
	C233.640579,211.781403 206.917145,211.781403 179.711609,211.781403 
	C179.711609,190.570236 179.711609,169.843948 179.711609,149.246826 
	C153.951416,149.246826 128.681870,149.246826 102.924591,149.246826 
	C102.924591,170.213440 102.924591,190.939621 102.924591,212.145203 
	C75.714912,212.145203 48.991249,212.145203 22.352064,212.145203 
	C22.352064,234.690109 22.352064,256.745209 22.352064,279.283844 
	C49.425446,279.283844 76.149216,279.283844 102.999825,279.283844 
	C102.999825,286.432129 103.047256,293.093567 102.957001,299.753113 
	C102.940346,300.982117 102.700294,302.458771 101.992233,303.384155 
	C99.008804,307.283386 95.834030,311.037994 92.683998,314.807709 
	C80.697235,329.152496 68.588745,343.397003 56.720566,357.839050 
	C40.718037,377.312103 24.940571,396.970032 8.945174,416.448975 
	C6.644077,419.251160 3.665199,421.496796 0.999999,424.000000 
M734.500000,189.000000 
	C718.413391,189.000000 702.326782,189.000000 685.762451,189.000000 
	C685.762451,213.045731 685.762451,236.435760 685.762451,259.603638 
	C663.554138,259.603638 641.834167,259.603638 619.809570,259.603638 
	C619.809570,235.939423 619.809570,212.670624 619.809570,189.282837 
	C594.111633,189.282837 568.726501,189.282837 543.285095,189.282837 
	C543.285095,281.598083 543.285095,373.630219 543.285095,465.704224 
	C616.608337,465.704224 689.646118,465.704224 762.702026,465.704224 
	C762.702026,373.376007 762.702026,281.343842 762.702026,189.000000 
	C753.438171,189.000000 744.469055,189.000000 734.500000,189.000000 
z"/>
<path fill="#3A4994" opacity="1.000000" stroke="none" 
	d="
M0.999999,424.416656 
	C3.665199,421.496796 6.644077,419.251160 8.945174,416.448975 
	C24.940571,396.970032 40.718037,377.312103 56.720566,357.839050 
	C68.588745,343.397003 80.697235,329.152496 92.683998,314.807709 
	C95.834030,311.037994 99.008804,307.283386 101.992233,303.384155 
	C102.700294,302.458771 102.940346,300.982117 102.957001,299.753113 
	C103.047256,293.093567 102.999825,286.432129 102.999825,279.283844 
	C76.149216,279.283844 49.425446,279.283844 22.352064,279.283844 
	C22.352064,256.745209 22.352064,234.690109 22.352064,212.145203 
	C48.991249,212.145203 75.714912,212.145203 102.924591,212.145203 
	C102.924591,190.939621 102.924591,170.213440 102.924591,149.246826 
	C128.681870,149.246826 153.951416,149.246826 179.711609,149.246826 
	C179.711609,169.843948 179.711609,190.570236 179.711609,211.781403 
	C206.917145,211.781403 233.640579,211.781403 260.680573,211.781403 
	C260.680573,234.321228 260.680573,256.375885 260.680573,278.920044 
	C233.942764,278.920044 207.219070,278.920044 180.010345,278.920044 
	C180.010345,286.678192 179.495270,294.012695 180.255371,301.212555 
	C180.574310,304.233582 183.322815,307.188049 185.430450,309.798340 
	C196.027664,322.923065 206.852066,335.864258 217.453690,348.985413 
	C227.829178,361.826691 237.961243,374.864594 248.332535,387.709259 
	C257.594513,399.180023 267.049194,410.495056 276.386719,421.905060 
	C277.716797,423.530396 278.865784,425.303955 280.210052,427.163086 
	C260.340363,443.157745 240.631226,459.023163 220.468536,475.253662 
	C194.087234,441.895844 167.892517,408.773956 141.206772,375.031189 
	C114.623840,408.750488 88.572472,441.795502 62.193649,475.255890 
	C54.114624,468.990295 46.078117,462.678345 37.956577,456.477722 
	C25.910467,447.280792 13.804105,438.162811 1.361705,429.005615 
	C1.000000,427.611115 1.000000,426.222198 0.999999,424.416656 
z"/>
<path fill="#3A4994" opacity="1.000000" stroke="none" 
	d="
M379.468658,729.000000 
	C376.906799,728.011169 374.908386,726.547913 372.705597,726.107910 
	C353.296143,722.231750 336.234070,713.499939 320.834686,701.314209 
	C304.582214,688.453430 292.258972,672.534973 283.877258,653.546204 
	C278.653717,641.712158 274.980957,629.496765 273.996613,616.545898 
	C273.672607,612.283569 273.135010,608.027161 273.031982,603.759949 
	C272.346771,575.379211 280.322021,549.538879 296.980560,526.654419 
	C314.176056,503.032410 336.884674,487.143433 365.130493,478.756989 
	C380.786987,474.108368 396.645996,472.894073 412.505920,474.234314 
	C436.951874,476.300110 459.285889,484.887543 478.742523,500.242737 
	C494.236694,512.470764 506.786621,527.198242 515.375610,544.979248 
	C521.470581,557.596985 525.515686,570.853271 527.147339,584.980164 
	C530.142822,610.914734 526.579163,635.610657 514.925415,658.947693 
	C509.513855,669.784485 502.496948,679.552002 494.163818,688.532043 
	C475.838196,708.280396 453.465668,720.586426 427.481689,726.752747 
	C424.478058,727.465515 421.377716,727.770691 418.161133,728.632446 
	C405.312439,729.000000 392.624878,729.000000 379.468658,729.000000 
M358.467987,571.023621 
	C357.563141,572.558167 356.669708,574.099670 355.751709,575.626282 
	C346.076691,591.715820 346.024353,608.326416 354.071350,624.828003 
	C362.732819,642.589722 382.903137,655.877380 406.414978,653.079834 
	C422.214050,651.200012 434.608582,643.798401 443.422150,630.925781 
	C458.338867,609.139282 455.445374,582.848999 436.915344,564.512695 
	C425.292450,553.011353 411.239075,547.913025 394.714478,549.949463 
	C379.832458,551.783386 367.889099,558.427368 358.467987,571.023621 
z"/>
<path fill="#3A4994" opacity="1.000000" stroke="none" 
	d="
M438.531342,1.000000 
	C439.000000,35.465511 439.000000,69.931023 439.000000,104.888275 
	C457.688660,104.888275 476.083984,104.888275 494.736328,104.888275 
	C494.736328,127.436058 494.736328,149.491760 494.736328,171.863846 
	C476.274750,171.863846 458.000641,171.863846 439.239807,171.863846 
	C439.239807,207.229645 439.239807,242.286270 439.239807,277.670319 
	C413.031738,277.670319 387.309509,277.670319 361.000000,277.670319 
	C361.000000,185.765030 361.000000,93.851173 361.000000,1.468657 
	C386.687561,1.000000 412.375122,1.000000 438.531342,1.000000 
z"/>
<path fill="#3A4994" opacity="1.000000" stroke="none" 
	d="
M926.531372,1.000000 
	C927.000000,93.118736 927.000000,185.237473 927.000000,277.677979 
	C901.350525,277.677979 875.962769,277.677979 850.000000,277.677979 
	C850.000000,185.756790 850.000000,93.847054 850.000000,1.468657 
	C875.354248,1.000000 900.708435,1.000000 926.531372,1.000000 
z"/>
<path fill="#3A4994" opacity="1.000000" stroke="none" 
	d="
M1308.000000,336.531342 
	C1222.881104,337.000000 1137.762329,337.000000 1052.321777,337.000000 
	C1052.321777,312.017090 1052.321777,287.296234 1052.321777,262.000000 
	C1137.242920,262.000000 1222.152832,262.000000 1307.531372,262.000000 
	C1308.000000,286.687561 1308.000000,311.375122 1308.000000,336.531342 
z"/>
<path fill="#3A4994" opacity="1.000000" stroke="none" 
	d="
M1308.000000,465.531342 
	C1222.881104,466.000000 1137.762329,466.000000 1052.321777,466.000000 
	C1052.321777,441.017090 1052.321777,416.296234 1052.321777,391.000000 
	C1137.242920,391.000000 1222.152832,391.000000 1307.531372,391.000000 
	C1308.000000,415.687561 1308.000000,440.375122 1308.000000,465.531342 
z"/>
<path fill="#3A4994" opacity="1.000000" stroke="none" 
	d="
M1305.105225,132.949280 
	C1305.828857,132.966171 1306.552368,132.983032 1307.637939,132.999954 
	C1308.000000,157.020889 1308.000000,181.041794 1307.795044,205.616440 
	C1307.328125,206.329742 1307.137329,206.550797 1307.017700,206.833359 
	C1305.357300,206.888901 1303.696777,206.992874 1302.036377,206.993042 
	C1220.823608,207.000977 1139.610718,206.957184 1058.398315,207.105301 
	C1053.474854,207.114273 1051.807373,206.022293 1051.876709,200.809326 
	C1052.173950,178.512985 1052.015381,156.210556 1052.270630,133.353821 
	C1052.736938,132.634155 1052.892090,132.423935 1052.983398,132.166641 
	C1053.739624,132.119171 1054.495972,132.071716 1055.626099,132.553131 
	C1056.000000,154.743301 1056.101807,176.405457 1055.909058,198.065018 
	C1055.873169,202.109207 1057.160278,203.079865 1061.029297,203.074997 
	C1140.342651,202.975006 1219.656250,202.975037 1298.969604,203.074844 
	C1302.836670,203.079712 1304.132812,202.112900 1304.091553,198.066025 
	C1303.889771,178.239700 1303.970337,158.410049 1304.048096,138.581955 
	C1304.055420,136.703049 1304.736694,134.826767 1305.105225,132.949280 
z"/>
<path fill="#3A4994" opacity="1.000000" stroke="none" 
	d="
M1307.258179,206.904907 
	C1307.137329,206.550797 1307.328125,206.329742 1307.795044,206.085098 
	C1308.000000,206.000000 1308.000000,206.500000 1308.000000,206.750000 
	C1307.833008,206.992142 1307.665894,206.984299 1307.258179,206.904907 
z"/>
<path fill="#3A4994" opacity="1.000000" stroke="none" 
	d="
M735.000000,189.000000 
	C744.469055,189.000000 753.438171,189.000000 762.702026,189.000000 
	C762.702026,281.343842 762.702026,373.376007 762.702026,465.704224 
	C689.646118,465.704224 616.608337,465.704224 543.285095,465.704224 
	C543.285095,373.630219 543.285095,281.598083 543.285095,189.282837 
	C568.726501,189.282837 594.111633,189.282837 619.809570,189.282837 
	C619.809570,212.670624 619.809570,235.939423 619.809570,259.603638 
	C641.834167,259.603638 663.554138,259.603638 685.762451,259.603638 
	C685.762451,236.435760 685.762451,213.045731 685.762451,189.000000 
	C702.326782,189.000000 718.413391,189.000000 735.000000,189.000000 
M686.000000,343.501282 
	C686.000000,337.746887 686.000000,331.992493 686.000000,326.327667 
	C663.647888,326.327667 641.948486,326.327667 620.325378,326.327667 
	C620.325378,350.686432 620.325378,374.716125 620.325378,398.672546 
	C642.351746,398.672546 664.051086,398.672546 686.000000,398.672546 
	C686.000000,380.397705 686.000000,362.449188 686.000000,343.501282 
z"/>
<path fill="#3A4994" opacity="1.000000" stroke="none" 
	d="
M1304.864746,132.582794 
	C1304.736694,134.826767 1304.055420,136.703049 1304.048096,138.581955 
	C1303.970337,158.410049 1303.889771,178.239700 1304.091553,198.066025 
	C1304.132812,202.112900 1302.836670,203.079712 1298.969604,203.074844 
	C1219.656250,202.975037 1140.342651,202.975006 1061.029297,203.074997 
	C1057.160278,203.079865 1055.873169,202.109207 1055.909058,198.065018 
	C1056.101807,176.405457 1056.000000,154.743301 1055.999756,132.624329 
	C1057.160767,132.111130 1058.322144,132.007156 1059.483398,132.007050 
	C1140.038940,131.999405 1220.594360,131.999161 1301.149902,132.009018 
	C1302.307983,132.009155 1303.466187,132.144211 1304.864746,132.582794 
z"/>
<path fill="#3A4994" opacity="1.000000" stroke="none" 
	d="
M1052.727539,132.135696 
	C1052.892090,132.423935 1052.736938,132.634155 1052.342285,132.888824 
	C1052.268188,132.688492 1052.369873,132.396622 1052.727539,132.135696 
z"/>
<path fill="#FFFFFF" opacity="1.000000" stroke="none" 
	d="
M358.728882,570.766479 
	C367.889099,558.427368 379.832458,551.783386 394.714478,549.949463 
	C411.239075,547.913025 425.292450,553.011353 436.915344,564.512695 
	C455.445374,582.848999 458.338867,609.139282 443.422150,630.925781 
	C434.608582,643.798401 422.214050,651.200012 406.414978,653.079834 
	C382.903137,655.877380 362.732819,642.589722 354.071350,624.828003 
	C346.024353,608.326416 346.076691,591.715820 355.751709,575.626282 
	C356.669708,574.099670 357.563141,572.558167 358.728882,570.766479 
z"/>
<path fill="#FFFFFF" opacity="1.000000" stroke="none" 
	d="
M686.000000,344.000977 
	C686.000000,362.449188 686.000000,380.397705 686.000000,398.672546 
	C664.051086,398.672546 642.351746,398.672546 620.325378,398.672546 
	C620.325378,374.716125 620.325378,350.686432 620.325378,326.327667 
	C641.948486,326.327667 663.647888,326.327667 686.000000,326.327667 
	C686.000000,331.992493 686.000000,337.746887 686.000000,344.000977 
z"/>
</svg>