<svg xmlns="http://www.w3.org/2000/svg" width="80.867393mm" height="64.163033mm" viewBox="0 0 80.867393 64.163032"><path d="M55.426 22.13v5.44h-7.485v5.879h7.595v2.227l-8.8 10.843 5.003 3.87 6.9-8.981 6.791 9.091 5.002-4.053-8.945-10.88V33.34h7.63v-6.097H61.562v.073-5.148zM77.844 9.06v24.06h6.316v-9.164h5.294v-6.207h-5.403V9.096Z" style="fill:#000;fill-opacity:1;stroke:none;stroke-width:.264583px;stroke-linecap:butt;stroke-linejoin:miter;stroke-opacity:1" transform="translate(-46.737 -8.96)"/><path d="M191.95-194.986V-102.805h72.446v-91.822H241.23v24.022h-26.095v-24.25zm23.47 45.369h25.81v25.81h-25.81z" style="fill:#000;fill-opacity:1;stroke:none;stroke-width:.999999px;stroke-linecap:butt;stroke-linejoin:miter;stroke-opacity:1" transform="matrix(.26458 0 0 .26458 -2.957 67.352)"/><path d="M121.488 8.997V33.5h6.116V8.96Z" style="fill:#000;fill-opacity:1;stroke:none;stroke-width:.264583px;stroke-linecap:butt;stroke-linejoin:miter;stroke-opacity:1" transform="translate(-46.737 -8.96)"/><path d="M141.887-96.152a42.049 42.049 0 0 0-42.05 42.048 42.049 42.049 0 0 0 42.05 42.05 42.049 42.049 0 0 0 42.049-42.05 42.049 42.049 0 0 0-42.05-42.048zm0 23.756a18.294 18.294 0 0 1 18.295 18.292 18.294 18.294 0 0 1-18.295 18.295 18.294 18.294 0 0 1-18.293-18.295 18.294 18.294 0 0 1 18.293-18.292z" style="opacity:1;fill:#000;fill-opacity:1;stroke:none;stroke-width:.93126;stroke-miterlimit:4;stroke-dasharray:none;stroke-opacity:1" transform="matrix(.26458 0 0 .26458 -2.957 67.352)"/></svg>